<svg width="18" height="18" viewBox="0 0 18 18" fill="none" xmlns="http://www.w3.org/2000/svg">
<path fill-rule="evenodd" clip-rule="evenodd" d="M1.90744 0.846867C1.61454 0.553974 1.13967 0.553974 0.846776 0.846867C0.553882 1.13976 0.553882 1.61463 0.846776 1.90753L7.85893 8.91968L0.846806 15.9318C0.553913 16.2247 0.553912 16.6996 0.846806 16.9925C1.1397 17.2854 1.61457 17.2854 1.90747 16.9925L8.91959 9.98034L15.9317 16.9925C16.2246 17.2854 16.6995 17.2854 16.9924 16.9925C17.2853 16.6996 17.2853 16.2247 16.9924 15.9318L9.98025 8.91969L16.9924 1.90753C17.2853 1.61463 17.2853 1.13976 16.9924 0.846867C16.6995 0.553974 16.2246 0.553974 15.9318 0.846867L8.91959 7.85903L1.90744 0.846867Z" fill="#8B8B8B"/>
</svg>
