<svg width="145" height="128" viewBox="0 0 145 128" fill="none" xmlns="http://www.w3.org/2000/svg">
<g clip-path="url(#clip0)">
<path opacity="0.5" fill-rule="evenodd" clip-rule="evenodd" d="M73.1201 117.175C100.699 117.175 123.087 119.601 123.087 122.588C123.087 125.576 100.697 128.002 73.1201 128.002C45.543 128.002 23.1528 125.576 23.1528 122.588C23.1511 119.601 45.5412 117.175 73.1201 117.175Z" fill="#B3F8E9"/>
<path fill-rule="evenodd" clip-rule="evenodd" d="M30.4289 42.5573C29.1888 39.8655 26.5072 38 23.4016 38C19.9447 38 17.0121 40.3117 16.0106 43.5023C13.7743 43.6417 11.978 45.4719 12.0002 47.8569C12.002 48.0814 34.9999 48.0108 34.9999 47.8569C35.0132 44.249 33.7988 42.5248 31.0019 42.5248C30.8085 42.5248 30.6169 42.5356 30.4289 42.5573Z" fill="#606060"/>
<path fill-rule="evenodd" clip-rule="evenodd" d="M83.7208 13.3039C87.171 6.03527 94.6334 1 103.273 1C112.894 1 121.052 7.24164 123.839 15.8554C130.063 16.2327 135.061 21.1732 134.999 27.6128C134.993 28.2203 71.0003 28.0291 71.0003 27.6128C70.9627 17.8705 74.3411 13.216 82.1231 13.216C82.6631 13.216 83.1962 13.2447 83.7208 13.3039Z" fill="#606060"/>
<path d="M5.11615 97.871C4.79583 97.871 4.47729 97.7489 4.23307 97.5047L3.18187 96.4535L2.13068 97.5047C1.64224 97.9931 0.85296 97.9931 0.364525 97.5047C-0.123909 97.0162 -0.123909 96.2252 0.364525 95.7385L1.41572 94.6891L0.364525 93.6379C-0.123909 93.1495 -0.123909 92.3584 0.364525 91.8717C0.85296 91.3833 1.64224 91.3833 2.13068 91.8717L3.18187 92.9229L4.23307 91.8717C4.72151 91.3833 5.51079 91.3833 5.99922 91.8717C6.48766 92.3602 6.48766 93.1512 5.99922 93.6379L4.94803 94.6891L5.99922 95.7403C6.48766 96.2287 6.48766 97.0198 5.99922 97.5064C5.75677 97.7489 5.43646 97.871 5.11615 97.871ZM142.825 70.954C142.504 70.954 142.186 70.8319 141.942 70.5877L140.89 69.5365L139.841 70.5877C139.353 71.0761 138.563 71.0761 138.075 70.5877C137.586 70.0992 137.586 69.31 138.075 68.8215L139.124 67.7703L138.075 66.7191C137.586 66.2307 137.586 65.4396 138.075 64.953C138.563 64.4646 139.353 64.4646 139.841 64.953L140.89 66.0042L141.942 64.953C142.43 64.4646 143.219 64.4646 143.708 64.953C144.196 65.4396 144.196 66.2307 143.708 66.7191L142.658 67.7703L143.708 68.8215C144.196 69.31 144.196 70.101 143.708 70.5877C143.464 70.8319 143.143 70.954 142.825 70.954ZM17.6084 31.2475C17.2881 31.2475 16.9695 31.1254 16.7253 30.8811L15.6741 29.8299L14.6229 30.8811C14.1345 31.3696 13.3452 31.3696 12.8568 30.8811C12.3683 30.3927 12.3683 29.6017 12.8568 29.115L13.908 28.0638L12.8568 27.0126C12.3683 26.5242 12.3683 25.7349 12.8568 25.2465C13.3434 24.758 14.1345 24.758 14.6229 25.2465L15.6741 26.2976L16.7253 25.2465C17.2138 24.758 18.003 24.758 18.4915 25.2465C18.9799 25.7349 18.9799 26.5259 18.4915 27.0126L17.4403 28.0638L18.4915 29.115C18.9799 29.6017 18.9799 30.3927 18.4915 30.8811C18.249 31.1254 17.9287 31.2475 17.6084 31.2475Z" fill="#606060"/>
<path d="M73.7042 70.5912L73.205 70.5625L73.2034 70.5912L73.205 70.62L73.7042 70.5912ZM73.7042 70.5912C73.205 70.5625 73.205 70.5622 73.2051 70.5619L73.2051 70.5613L73.2052 70.56L73.2054 70.5568L73.206 70.5483L73.2081 70.5231C73.21 70.5027 73.213 70.4753 73.2174 70.4415C73.2264 70.3739 73.2415 70.2806 73.2669 70.1671C73.3176 69.9405 73.4097 69.6308 73.5767 69.2841C73.9131 68.5857 74.5488 67.7478 75.7307 67.1431C78.8733 65.5319 83.5423 63.1307 87.9008 60.2537C92.2772 57.3649 96.261 54.0464 98.109 50.6267L98.109 50.6267C104.265 39.2376 101.552 28.3488 99.5458 23.136L100.012 22.9564L99.5458 23.136L98.8583 21.349L98.7756 21.1341C98.6491 20.9338 98.3903 20.7107 98.0288 20.532C97.6571 20.3481 97.2321 20.2391 96.8535 20.2391H47.2225C46.8433 20.2391 46.4184 20.3484 46.0469 20.5325C45.6858 20.7113 45.4271 20.9344 45.3004 21.1343L45.2179 21.3491L44.5304 23.1376L44.5303 23.1378C42.5246 28.3506 39.811 39.2394 45.967 50.6285L45.9671 50.6285C47.8151 54.0482 51.7985 57.3667 56.1746 60.2555C60.5329 63.1325 65.2019 65.5337 68.3453 67.1448C69.5272 67.7504 70.163 68.5883 70.4994 69.2865C70.6663 69.633 70.7584 69.9425 70.8091 70.1691C70.8345 70.2825 70.8497 70.3758 70.8586 70.4433C70.8631 70.4771 70.8661 70.5045 70.868 70.5248L70.8701 70.55L70.8707 70.5585L70.8709 70.5617L70.871 70.5631L70.871 70.5637C70.871 70.5639 70.871 70.5642 70.3719 70.593M73.7042 70.5912C73.205 70.62 73.205 70.6202 73.2051 70.6205L73.2051 70.6211L73.2052 70.6224L73.2054 70.6256L73.206 70.6341L73.2081 70.6593C73.21 70.6797 73.213 70.7071 73.2174 70.7409C73.2264 70.8084 73.2415 70.9016 73.2669 71.0151C73.3176 71.2416 73.4096 71.5511 73.5764 71.8977C73.9125 72.5961 74.5477 73.4344 75.7286 74.0409L75.729 74.0411C78.8716 75.6513 83.5405 78.0526 87.8991 80.9296C92.2754 83.8184 96.2592 87.1368 98.1073 90.5557C104.263 101.945 101.55 112.835 99.544 118.046L99.544 118.047L99.5394 118.059L99.5348 118.07L99.5302 118.082L99.5257 118.094L99.5212 118.106L99.5167 118.118L99.5122 118.129L99.5077 118.141L99.5032 118.152L99.4988 118.164L99.4944 118.175L99.49 118.187L99.4856 118.198L99.4813 118.21L99.4769 118.221L99.4726 118.232L99.4683 118.243L99.464 118.255L99.4597 118.266L99.4554 118.277L99.4512 118.288L99.447 118.299L99.4428 118.31L99.4386 118.321L99.4344 118.332L99.4302 118.342L99.4261 118.353L99.422 118.364L99.4179 118.375L99.4138 118.385L99.4097 118.396L99.4056 118.406L99.4016 118.417L99.3976 118.427L99.3936 118.438L99.3896 118.448L99.3856 118.458L99.3817 118.469L99.3777 118.479L99.3738 118.489L99.3699 118.499L99.366 118.509L99.3621 118.52L99.3583 118.53L99.3545 118.54L99.3506 118.549L99.3468 118.559L99.343 118.569L99.3393 118.579L99.3355 118.589L99.3318 118.599L99.328 118.608L99.3243 118.618L99.3206 118.627L99.317 118.637L99.3133 118.647L99.3097 118.656L99.306 118.665L99.3024 118.675L99.2988 118.684L99.2952 118.694L99.2917 118.703L99.2881 118.712L99.2846 118.721L99.2811 118.73L99.2776 118.74L99.2741 118.749L99.2706 118.758L99.2672 118.767L99.2637 118.776L99.2603 118.784L99.2569 118.793L99.2535 118.802L99.2501 118.811L99.2468 118.82L99.2434 118.828L99.2401 118.837L99.2368 118.846L99.2335 118.854L99.2302 118.863L99.2269 118.871L99.2237 118.88L99.2204 118.888L99.2172 118.897L99.214 118.905L99.2108 118.913L99.2076 118.922L99.2045 118.93L99.2013 118.938L99.1982 118.946L99.195 118.954L99.1919 118.962L99.1889 118.97L99.1858 118.978L99.1827 118.986L99.1797 118.994L99.1766 119.002L99.1736 119.01L99.1706 119.018L99.1676 119.026L99.1647 119.033L99.1617 119.041L99.1587 119.049L99.1558 119.056L99.1529 119.064L99.15 119.071L99.1471 119.079L99.1442 119.086L99.1414 119.094L99.1385 119.101L99.1357 119.109L99.1329 119.116L99.1301 119.123L99.1273 119.13L99.1245 119.138L99.1218 119.145L99.119 119.152L99.1163 119.159L99.1136 119.166L99.1109 119.173L99.1082 119.18L99.1055 119.187L99.1028 119.194L99.1002 119.201L99.0975 119.208L99.0949 119.215L99.0923 119.221L99.0897 119.228L99.0871 119.235L99.0845 119.242L99.082 119.248L99.0794 119.255L99.0769 119.261L99.0744 119.268L99.0719 119.275L99.0694 119.281L99.0669 119.287L99.0645 119.294L99.062 119.3L99.0596 119.307L99.0572 119.313L99.0547 119.319L99.0524 119.325L99.05 119.332L99.0476 119.338L99.0452 119.344L99.0429 119.35L99.0406 119.356L99.0382 119.362L99.0359 119.368L99.0336 119.374L99.0313 119.38L99.0291 119.386L99.0268 119.392L99.0246 119.398L99.0223 119.403L99.0201 119.409L99.0179 119.415L99.0157 119.421L99.0135 119.426L99.0114 119.432L99.0092 119.438L99.0071 119.443L99.0049 119.449L99.0028 119.454L99.0007 119.46L98.9986 119.465L98.9965 119.471L98.9945 119.476L98.9924 119.481L98.9903 119.487L98.9883 119.492L98.9863 119.497L98.9843 119.503L98.9823 119.508L98.9803 119.513L98.9783 119.518L98.9763 119.523L98.9744 119.528L98.9724 119.533L98.9705 119.538L98.9686 119.543L98.9667 119.548L98.9648 119.553L98.9629 119.558L98.961 119.563L98.9592 119.568L98.9573 119.573L98.9555 119.577L98.9537 119.582L98.9519 119.587L98.95 119.592L98.9483 119.596L98.9465 119.601L98.9447 119.605L98.9429 119.61L98.9412 119.615L98.9395 119.619L98.9377 119.624L98.936 119.628L98.9343 119.632L98.9326 119.637L98.9309 119.641L98.9293 119.646L98.9276 119.65L98.926 119.654L98.9243 119.658L98.9227 119.663L98.9211 119.667L98.9195 119.671L98.9179 119.675L98.9163 119.679L98.9147 119.683L98.9131 119.688L98.9116 119.692L98.91 119.696L98.9085 119.7L98.907 119.704L98.9055 119.707L98.904 119.711L98.9025 119.715L98.901 119.719L98.8995 119.723L98.8981 119.727L98.8966 119.731L98.8952 119.734L98.8937 119.738L98.8923 119.742L98.8909 119.745L98.8895 119.749L98.8881 119.753L98.8867 119.756L98.8854 119.76L98.884 119.763L98.8826 119.767L98.8813 119.77L98.88 119.774L98.8786 119.777L98.8773 119.781L98.876 119.784L98.8747 119.787L98.8734 119.791L98.8722 119.794L98.8709 119.797L98.8696 119.801L98.8684 119.804L98.8672 119.807L98.8659 119.81L98.8647 119.814L98.8635 119.817L98.8623 119.82L98.8611 119.823L98.8599 119.826L98.8588 119.829L98.8576 119.832L98.8564 119.835L98.8553 119.838L98.8541 119.841L98.853 119.844L98.8519 119.847L98.8508 119.85L98.8497 119.853L98.8486 119.855L98.8475 119.858L98.8464 119.861L98.8454 119.864L98.8443 119.867L98.8433 119.869L98.8422 119.872L98.8412 119.875L98.8402 119.877L98.8391 119.88L98.8381 119.883L98.8371 119.885L98.8361 119.888L98.8352 119.89L98.8342 119.893L98.8332 119.895L98.8323 119.898L98.8313 119.9L98.8304 119.903L98.8294 119.905L98.8285 119.908L98.8276 119.91L98.8267 119.912L98.8258 119.915L98.8249 119.917L98.824 119.919L98.8231 119.922L98.8223 119.924L98.8214 119.926L98.8205 119.928L98.8197 119.931L98.8189 119.933L98.818 119.935L98.8172 119.937L98.8164 119.939L98.8156 119.941L98.8148 119.943L98.814 119.945L98.8132 119.947L98.8124 119.95L98.8117 119.952L98.8109 119.954L98.8101 119.955L98.8094 119.957L98.8087 119.959L98.8079 119.961L98.8072 119.963L98.8065 119.965L98.8058 119.967L98.805 119.969L98.8043 119.971L98.8037 119.972L98.803 119.974L98.8023 119.976L98.8016 119.978L98.801 119.979L98.8003 119.981L98.7996 119.983L98.799 119.984L98.7984 119.986L98.7977 119.988L98.7971 119.989L98.7965 119.991L98.7959 119.993L98.7953 119.994L98.7947 119.996L98.7941 119.997L98.7935 119.999L98.7929 120L98.7924 120.002L98.7918 120.003L98.7912 120.005L98.7907 120.006L98.7901 120.008L98.7896 120.009L98.7891 120.01L98.7885 120.012L98.788 120.013L98.7875 120.014L98.787 120.016L98.7865 120.017L98.786 120.018L98.7855 120.02L98.785 120.021L98.7845 120.022L98.784 120.023L98.7836 120.025L98.7831 120.026L98.7826 120.027L98.7822 120.028L98.7817 120.029L98.7813 120.03L98.7809 120.032L98.7804 120.033L98.78 120.034L98.7796 120.035L98.7792 120.036L98.7788 120.037L98.7784 120.038L98.778 120.039L98.7776 120.04L98.7772 120.041L98.7768 120.042L98.7764 120.043L98.7761 120.044L98.7757 120.045L98.7753 120.046L98.775 120.047L98.7746 120.048L98.7743 120.049L98.7739 120.05L98.7739 120.05C98.6473 120.25 98.3883 120.473 98.0269 120.652C97.6549 120.836 97.2301 120.945 96.8518 120.945H47.2225C46.8442 120.945 46.4194 120.836 46.0474 120.652C45.686 120.473 45.427 120.25 45.3004 120.05L45.2179 119.835L44.5304 118.047L44.5303 118.046C42.5246 112.835 39.811 101.945 45.967 90.5557C47.8151 87.1369 51.7989 83.8188 56.1752 80.9303C60.5338 78.0534 65.2027 75.6522 68.3454 74.0411C69.5272 73.4355 70.163 72.5977 70.4994 71.8995C70.6663 71.5529 70.7584 71.2434 70.8091 71.0169C70.8345 70.9034 70.8497 70.8102 70.8586 70.7427C70.8631 70.7089 70.8661 70.6815 70.868 70.6611L70.8701 70.6359L70.8707 70.6274L70.8709 70.6242L70.871 70.6229L70.871 70.6223C70.871 70.622 70.871 70.6217 70.3719 70.593M70.3719 70.593L70.871 70.6217L70.8727 70.593L70.871 70.5642L70.3719 70.593Z" fill="white" stroke="#F2FEFB"/>
<path d="M100.552 107.045C98.7293 105.447 89.6525 104.127 87.1537 101.936C84.6532 99.7451 75.9587 91.9 72.037 91.9C68.664 91.9 64.0841 100.966 59.8439 102.899C55.9081 104.691 46.127 107.51 43.8494 111.121C44.3025 113.717 44.9979 115.934 45.6456 117.615L46.3464 119.435C46.5022 119.562 46.8844 119.746 47.2224 119.746H96.8516C97.1897 119.746 97.5719 119.562 97.7276 119.435L98.4284 117.615C99.3894 115.12 100.456 111.446 100.674 107.105C100.596 107.066 100.552 107.045 100.552 107.045Z" fill="#B3F8E9"/>
<path d="M88.0014 47.8401C82.2339 47.8401 75.5622 53.3403 72.037 53.3403C68.779 53.3403 59.7305 49.4947 55.9983 48.3657C53.0712 47.4773 48.6523 47.6312 46.1995 48.4223C46.4525 48.9656 46.7233 49.5106 47.0188 50.0575C50.6149 56.7115 62.9585 63.0382 68.8905 66.0767C71.0831 67.2005 71.8795 69.1047 72.0387 70.2284C72.1962 69.1029 72.9944 67.1987 75.187 66.0767C81.119 63.0364 93.4626 56.7115 97.0586 50.0575C97.2444 49.7142 97.4232 49.3708 97.5913 49.0258C94.5935 48.1161 89.9781 47.8401 88.0014 47.8401Z" fill="#B3F8E9"/>
<path d="M101.437 113.614C101.005 115.426 100.487 116.985 100.012 118.224C99.2249 120.272 99.2249 120.272 99.2249 120.272C98.8515 120.916 97.7861 121.445 96.8535 121.445H47.2189C46.2863 121.445 45.221 120.916 44.8476 120.272C44.8476 120.272 44.8476 120.272 44.0618 118.224C43.5858 116.987 43.0672 115.426 42.6354 113.614H101.437Z" fill="#00E8B4"/>
<path d="M42.6354 27.5665H101.435C101.003 25.7543 100.485 24.1952 100.011 22.9564C99.2231 20.9107 99.2231 20.9107 99.2231 20.9107C98.8497 20.2665 97.7843 19.7356 96.8517 19.7356H47.2189C46.2863 19.7356 45.221 20.2647 44.8476 20.9107C44.8476 20.9107 44.8476 20.9107 44.0618 22.9564C43.5858 24.1952 43.0672 25.7561 42.6354 27.5665Z" fill="#00E8B4"/>
<path d="M96.8517 122.693H47.2225C45.8439 122.693 44.3574 121.919 43.7663 120.893C43.7344 120.836 43.7061 120.778 43.6831 120.718L42.8974 118.674C40.7029 112.977 37.9865 101.639 44.4264 89.7234C48.456 82.2694 61.3482 75.6596 67.5456 72.483C68.7773 71.8512 69.0534 70.8868 69.1118 70.5877C69.0569 70.3081 68.7862 69.3348 67.5474 68.6994C61.3517 65.5228 48.4577 58.9148 44.4281 51.4591C44.1008 50.8521 44.3273 50.0947 44.9325 49.7655C45.5395 49.4363 46.2969 49.6629 46.6261 50.2699C50.2876 57.046 62.7144 63.4151 68.6871 66.4749C70.8832 67.5987 71.5628 69.5453 71.6194 70.5187C71.623 70.5665 71.623 70.6142 71.6194 70.662C71.5628 71.6336 70.8832 73.5802 68.6871 74.704C62.7144 77.7656 50.2876 84.1365 46.6261 90.9091C40.6605 101.945 43.1911 112.478 45.2298 117.773L45.966 119.69C46.1359 119.888 46.6951 120.192 47.2225 120.192H96.8517C97.3808 120.192 97.9383 119.89 98.1082 119.69L98.8443 117.773C100.885 112.476 103.414 101.945 97.4481 90.9073C96.6252 89.3836 95.2784 87.7643 93.4468 86.0937C92.9371 85.6283 92.9 84.839 93.3654 84.3293C93.8308 83.8197 94.6201 83.7843 95.1298 84.2479C97.1702 86.1079 98.6904 87.9501 99.646 89.7198C106.086 101.637 103.368 112.974 101.175 118.67L100.391 120.714C100.368 120.774 100.34 120.835 100.308 120.889C99.7168 121.919 98.2303 122.693 96.8517 122.693ZM75.9569 74.8438C75.7658 74.8438 75.5712 74.7996 75.3889 74.7058C73.1927 73.5802 72.5114 71.6353 72.4565 70.6638C72.453 70.616 72.453 70.5682 72.4565 70.5204C72.5131 69.5471 73.1945 67.6005 75.3889 66.4767C81.3616 63.4151 93.7883 57.0442 97.4498 50.2716C103.414 39.2358 100.885 28.7026 98.8461 23.4077L98.1099 21.4911C97.9383 21.2929 97.3808 20.9885 96.8534 20.9885H47.2225C46.6933 20.9885 46.1359 21.2912 45.966 21.4911L45.228 23.4077C44.9821 24.0519 44.26 24.374 43.6141 24.1244C42.9699 23.8767 42.6496 23.1547 42.8974 22.5105L43.6831 20.4665C43.7061 20.4063 43.7344 20.3479 43.7663 20.2913C44.3574 19.2649 45.8439 18.4897 47.2225 18.4897H96.8517C98.2303 18.4897 99.7168 19.2649 100.308 20.2913C100.34 20.3479 100.368 20.4063 100.391 20.4665L101.177 22.5087C103.369 28.2054 106.086 39.542 99.646 51.4591C95.6164 58.9148 82.7242 65.5246 76.5286 68.6994C75.2951 69.3312 75.0208 70.2957 74.9624 70.5965C75.0155 70.8744 75.288 71.8477 76.5268 72.483C77.1409 72.798 77.3833 73.5502 77.0701 74.1642C76.8489 74.596 76.4118 74.8438 75.9569 74.8438Z" fill="#D9FCF4"/>
</g>
<defs>
<clipPath id="clip0">
<rect width="144.074" height="128" fill="white"/>
</clipPath>
</defs>
</svg>
