<svg width="128" height="128" viewBox="0 0 128 128" fill="none" xmlns="http://www.w3.org/2000/svg">
<circle cx="64" cy="64" r="64" fill="#353535"/>
<g clip-path="url(#clip0)">
<path d="M79.8 72.9998C91.7294 72.9998 101.4 63.3292 101.4 51.3998C101.4 39.4705 91.7294 29.7998 79.8 29.7998C67.8707 29.7998 58.2 39.4705 58.2 51.3998C58.2 63.3292 67.8707 72.9998 79.8 72.9998Z" fill="#EEC8F7"/>
<path d="M47.4 96.3998C58.3352 96.3998 67.2 87.535 67.2 76.5998C67.2 65.6646 58.3352 56.7998 47.4 56.7998C36.4647 56.7998 27.6 65.6646 27.6 76.5998C27.6 87.535 36.4647 96.3998 47.4 96.3998Z" fill="#B3F8E9"/>
<path d="M75.57 74.404C77.01 74.674 78.432 74.8 79.8 74.8C92.706 74.8 103.2 64.306 103.2 51.4C103.2 38.494 92.706 28 79.8 28C67.542 28 57.3 37.594 56.472 49.834C56.4 50.824 57.156 51.688 58.146 51.742C59.136 51.814 60 51.058 60.054 50.068C60.756 39.718 69.432 31.6 79.8 31.6C90.726 31.6 99.6 40.474 99.6 51.4C99.6 62.326 90.726 71.2 79.8 71.2C78.63 71.2 77.46 71.092 76.218 70.858C75.246 70.696 74.31 71.326 74.13 72.298C73.95 73.27 74.598 74.224 75.57 74.404Z" fill="#C74AE3"/>
<path d="M47.4 53.2002C34.494 53.2002 24 63.6942 24 76.6002C24 89.5062 34.494 100 47.4 100C60.306 100 70.8 89.5062 70.8 76.6002C70.8 63.6942 60.306 53.2002 47.4 53.2002ZM47.4 96.4002C36.474 96.4002 27.6 87.5082 27.6 76.6002C27.6 65.6742 36.474 56.8002 47.4 56.8002C58.326 56.8002 67.2 65.6742 67.2 76.6002C67.2 87.5082 58.326 96.4002 47.4 96.4002Z" fill="#00E8B4"/>
<path d="M33 49.5998C33.99 49.5998 34.8 48.7898 34.8 47.7998V38.7998H46.662L46.14 39.3218C45.438 40.0238 45.438 41.1578 46.14 41.8598C46.482 42.2198 46.932 42.3998 47.4 42.3998C47.868 42.3998 48.318 42.2198 48.678 41.8778L52.278 38.2778C52.98 37.5758 52.98 36.4418 52.278 35.7398L48.678 32.1398C47.976 31.4378 46.842 31.4378 46.14 32.1398C45.438 32.8418 45.438 33.9758 46.14 34.6778L46.662 35.1998H33C32.01 35.1998 31.2 36.0098 31.2 36.9998V47.7998C31.2 48.7898 32.01 49.5998 33 49.5998Z" fill="#00E8B4"/>
<path d="M95.478 78.922C94.776 78.22 93.642 78.22 92.94 78.922L89.34 82.522C88.638 83.224 88.638 84.358 89.34 85.06C90.042 85.762 91.176 85.762 91.878 85.06L92.4 84.538V89.2H76.2C75.21 89.2 74.4 90.01 74.4 91C74.4 91.99 75.21 92.8 76.2 92.8H94.2C95.19 92.8 96 91.99 96 91V84.538L96.522 85.06C96.882 85.42 97.332 85.6 97.8 85.6C98.268 85.6 98.718 85.42 99.078 85.078C99.78 84.376 99.78 83.242 99.078 82.54L95.478 78.922Z" fill="#00E8B4"/>
</g>
<defs>
<clipPath id="clip0">
<rect width="79.2" height="72" fill="white" transform="translate(24 28)"/>
</clipPath>
</defs>
</svg>
