<svg width="128" height="128" viewBox="0 0 128 128" fill="none" xmlns="http://www.w3.org/2000/svg">
<circle cx="64" cy="64" r="64" fill="#353535"/>
<g clip-path="url(#clip0)">
<path d="M63.6192 36.008C58.2072 41.4681 47.2549 44.4463 38 44.7666V63.997C38 79.6407 51.6903 89.2159 63.6192 92.7546C75.5482 89.2159 89.2384 79.6407 89.2384 63.997V44.7666C79.9835 44.4463 69.0313 41.4681 63.6192 36.008Z" fill="#606060"/>
<path d="M91.042 41.5672C81.723 41.5672 69.4739 38.4288 65.1026 32.6005C64.4941 31.7998 63.1491 31.7998 62.5407 32.6005C58.1694 38.4288 45.9202 41.5672 36.6012 41.5672C35.7205 41.5672 35 42.2877 35 43.1684V63.984C35 81.5972 50.2915 92.2132 63.3733 95.96C63.5174 95.992 63.6775 96.008 63.8216 96.008C63.9657 96.008 64.1258 95.992 64.27 95.96C77.3518 92.2132 92.6432 81.5972 92.6432 63.984V43.1684C92.6432 42.2877 91.9227 41.5672 91.042 41.5672ZM89.4408 63.984C89.4408 79.6277 75.7506 89.2029 63.8216 92.7416C51.8927 89.2029 38.2024 79.6277 38.2024 63.984V44.7536C47.4573 44.4333 58.4096 41.4551 63.8216 35.995C69.2337 41.4551 80.1859 44.4333 89.4408 44.7536V63.984Z" fill="#8B8B8B"/>
<path d="M56 65.008L61 70.008L72 59.008" stroke="#8B8B8B" stroke-width="4" stroke-linecap="round" stroke-linejoin="round"/>
</g>
<defs>
<clipPath id="clip0">
<rect width="64" height="64" fill="white" transform="translate(32 32)"/>
</clipPath>
</defs>
</svg>
