<svg width="128" height="128" viewBox="0 0 128 128" fill="none" xmlns="http://www.w3.org/2000/svg">
<circle cx="64" cy="64" r="64" fill="#353535"/>
<g clip-path="url(#clip0)">
<path d="M63.6192 36C58.2072 41.4601 47.2549 44.4383 38 44.7586V63.989C38 79.6327 51.6903 89.2079 63.6192 92.7466C75.5482 89.2079 89.2384 79.6327 89.2384 63.989V44.7586C79.9835 44.4383 69.0313 41.4601 63.6192 36Z" fill="#B3F8E9"/>
<path d="M91.042 41.5591C81.723 41.5591 69.4739 38.4208 65.1026 32.5924C64.4941 31.7918 63.1491 31.7918 62.5407 32.5924C58.1694 38.4208 45.9202 41.5591 36.6012 41.5591C35.7205 41.5591 35 42.2797 35 43.1603V63.9759C35 81.5891 50.2915 92.2051 63.3733 95.9519C63.5174 95.9839 63.6775 96 63.8216 96C63.9657 96 64.1258 95.9839 64.27 95.9519C77.3518 92.2051 92.6432 81.5891 92.6432 63.9759V43.1603C92.6432 42.2797 91.9227 41.5591 91.042 41.5591ZM89.4408 63.9759C89.4408 79.6197 75.7506 89.1949 63.8216 92.7335C51.8927 89.1949 38.2024 79.6197 38.2024 63.9759V44.7455C47.4573 44.4253 58.4096 41.447 63.8216 35.9869C69.2337 41.447 80.1859 44.4253 89.4408 44.7455V63.9759Z" fill="#00E8B4"/>
<path d="M56 65L61 70L72 59" stroke="#C74AE3" stroke-width="4" stroke-linecap="round" stroke-linejoin="round"/>
</g>
<defs>
<clipPath id="clip0">
<rect width="57.6432" height="64" fill="white" transform="translate(35 32)"/>
</clipPath>
</defs>
</svg>
