<svg width="128" height="128" viewBox="0 0 128 128" fill="none" xmlns="http://www.w3.org/2000/svg">
<circle cx="64" cy="64" r="64" fill="#353535"/>
<path d="M56.8 31.6H31.6V49.6H56.8V31.6Z" fill="#B3F8E9"/>
<path d="M96.3999 71.2H71.2V89.2H96.3999V71.2Z" fill="#B3F8E9"/>
<path d="M58.6 28H29.8C28.81 28 28 28.81 28 29.8V51.4C28 52.39 28.81 53.2 29.8 53.2H42.4V56.8H37C36.01 56.8 35.2 57.61 35.2 58.6C35.2 59.59 36.01 60.4 37 60.4H51.4C52.39 60.4 53.2 59.59 53.2 58.6C53.2 57.61 52.39 56.8 51.4 56.8H46V53.2H58.6C59.59 53.2 60.4 52.39 60.4 51.4V29.8C60.4 28.81 59.59 28 58.6 28ZM56.8 49.6H31.6V31.6H56.8V49.6Z" fill="#00E8B4"/>
<path d="M98.2 67.6H69.4C68.41 67.6 67.6 68.41 67.6 69.4V91C67.6 91.99 68.41 92.8 69.4 92.8H82V96.4H76.6C75.61 96.4 74.8 97.21 74.8 98.2C74.8 99.19 75.61 100 76.6 100H91C91.99 100 92.8 99.19 92.8 98.2C92.8 97.21 91.99 96.4 91 96.4H85.6V92.8H98.2C99.19 92.8 100 91.99 100 91V69.4C100 68.41 99.19 67.6 98.2 67.6ZM96.4 89.2H71.2V71.2H96.4V89.2Z" fill="#00E8B4"/>
<path d="M69.4 42.4H85.6V58.6C85.6 59.59 86.41 60.4 87.4 60.4C88.39 60.4 89.2 59.59 89.2 58.6V40.6C89.2 39.61 88.39 38.8 87.4 38.8H69.4C68.41 38.8 67.6 39.61 67.6 40.6C67.6 41.59 68.41 42.4 69.4 42.4Z" fill="#C74AE3"/>
<path d="M58.6001 82H42.4V69.4C42.4 68.41 41.59 67.6 40.6 67.6C39.61 67.6 38.8 68.41 38.8 69.4V83.8C38.8 84.79 39.61 85.6 40.6 85.6H58.6001C59.5901 85.6 60.4001 84.79 60.4001 83.8C60.4001 82.81 59.5901 82 58.6001 82Z" fill="#C74AE3"/>
</svg>
