<svg width="163" height="40" viewBox="0 0 163 40" fill="none" xmlns="http://www.w3.org/2000/svg">
<path d="M19.8238 20L23.0492 16.7738L14.6623 8.38692V0L31.9046 16.8077L19.8238 28.3869V20Z" fill="#00E8B4"/>
<path d="M12.0808 20L8.85538 23.2262L17.2423 31.6131V40L0 23.1923L12.0808 11.6131V20Z" fill="white"/>
<path d="M48.147 28.3077V16.3031H43.557V13.6654H55.977V16.3031H51.387V28.3077H48.147Z" fill="white"/>
<path d="M60.6707 28.4738C59.5907 28.4738 58.6422 28.2592 57.8253 27.83C57.0084 27.3869 56.3784 26.7708 55.9353 25.9815C55.4922 25.1785 55.2707 24.2369 55.2707 23.1569C55.2707 22.0769 55.4922 21.1423 55.9353 20.3531C56.3784 19.55 57.0084 18.9339 57.8253 18.5046C58.6422 18.0754 59.5907 17.8608 60.6707 17.8608C61.7507 17.8608 62.6991 18.0754 63.5161 18.5046C64.333 18.9339 64.963 19.55 65.4061 20.3531C65.8491 21.1423 66.0707 22.0769 66.0707 23.1569C66.0707 24.2369 65.8491 25.1785 65.4061 25.9815C64.963 26.7708 64.333 27.3869 63.5161 27.83C62.6991 28.2592 61.7507 28.4738 60.6707 28.4738ZM60.6707 26.0854C62.1938 26.0854 62.9553 25.1092 62.9553 23.1569C62.9553 22.1739 62.7545 21.44 62.353 20.9554C61.9653 20.4708 61.4045 20.2285 60.6707 20.2285C59.1476 20.2285 58.3861 21.2046 58.3861 23.1569C58.3861 25.1092 59.1476 26.0854 60.6707 26.0854Z" fill="white"/>
<path d="M80.5446 17.8608C81.7076 17.8608 82.573 18.2139 83.1407 18.92C83.7084 19.6262 83.9922 20.7062 83.9922 22.16V28.3077H80.8561V22.2638C80.8561 21.5715 80.7453 21.0731 80.5238 20.7685C80.3161 20.4639 79.9561 20.3115 79.4438 20.3115C78.8484 20.3115 78.3846 20.5192 78.0522 20.9346C77.7199 21.35 77.5538 21.9315 77.5538 22.6792V28.3077H74.4176V22.2638C74.4176 21.5715 74.3069 21.0731 74.0853 20.7685C73.8776 20.4639 73.5176 20.3115 73.0053 20.3115C72.4099 20.3115 71.9461 20.5192 71.6138 20.9346C71.2815 21.35 71.1153 21.9315 71.1153 22.6792V28.3077H67.9792V18.11H71.0323V19.4808C71.3507 18.9546 71.773 18.5531 72.2992 18.2762C72.8392 17.9992 73.4553 17.8608 74.1476 17.8608C75.6569 17.8608 76.6676 18.4908 77.1799 19.7508C77.5123 19.1692 77.9761 18.7123 78.5715 18.38C79.1669 18.0339 79.8246 17.8608 80.5446 17.8608Z" fill="white"/>
<path d="M91.2566 28.4738C90.1766 28.4738 89.2281 28.2592 88.4112 27.83C87.5943 27.3869 86.9643 26.7708 86.5212 25.9815C86.0781 25.1785 85.8566 24.2369 85.8566 23.1569C85.8566 22.0769 86.0781 21.1423 86.5212 20.3531C86.9643 19.55 87.5943 18.9339 88.4112 18.5046C89.2281 18.0754 90.1766 17.8608 91.2566 17.8608C92.3366 17.8608 93.2851 18.0754 94.102 18.5046C94.9189 18.9339 95.5489 19.55 95.992 20.3531C96.4351 21.1423 96.6566 22.0769 96.6566 23.1569C96.6566 24.2369 96.4351 25.1785 95.992 25.9815C95.5489 26.7708 94.9189 27.3869 94.102 27.83C93.2851 28.2592 92.3366 28.4738 91.2566 28.4738ZM91.2566 26.0854C92.7797 26.0854 93.5412 25.1092 93.5412 23.1569C93.5412 22.1739 93.3405 21.44 92.9389 20.9554C92.5512 20.4708 91.9905 20.2285 91.2566 20.2285C89.7335 20.2285 88.972 21.2046 88.972 23.1569C88.972 25.1092 89.7335 26.0854 91.2566 26.0854Z" fill="white"/>
<path d="M108.223 20.7269C109.067 20.9762 109.718 21.4123 110.175 22.0354C110.646 22.6446 110.881 23.3992 110.881 24.2992C110.881 25.5315 110.424 26.5077 109.51 27.2277C108.61 27.9477 107.364 28.3077 105.772 28.3077H98.8143V13.6654H105.564C107.087 13.6654 108.292 14.0046 109.178 14.6831C110.078 15.3615 110.528 16.2892 110.528 17.4662C110.528 18.2277 110.32 18.8992 109.905 19.4808C109.504 20.0485 108.943 20.4639 108.223 20.7269ZM101.971 19.6262H105.024C105.855 19.6262 106.464 19.4877 106.852 19.2108C107.254 18.92 107.454 18.4838 107.454 17.9023C107.454 17.2931 107.254 16.85 106.852 16.5731C106.464 16.2823 105.855 16.1369 105.024 16.1369H101.971V19.6262ZM105.398 25.8362C106.257 25.8362 106.88 25.6908 107.267 25.4C107.655 25.1092 107.849 24.6385 107.849 23.9877C107.849 23.3369 107.655 22.8592 107.267 22.5546C106.88 22.25 106.257 22.0977 105.398 22.0977H101.971V25.8362H105.398Z" fill="white"/>
<path d="M120.174 20.4362L118.409 20.6231C117.537 20.7062 116.921 20.9554 116.561 21.3708C116.201 21.7723 116.021 22.3123 116.021 22.9908V28.3077H112.885V18.11H115.896V19.8338C116.408 18.6569 117.468 18.0131 119.074 17.9023L119.988 17.84L120.174 20.4362Z" fill="white"/>
<path d="M121.221 28.3077V18.11H124.357V28.3077H121.221ZM121.117 13.2085H124.481V16.1369H121.117V13.2085Z" fill="white"/>
<path d="M137.08 13.6654V28.3077H133.965V26.7915C133.66 27.3177 133.224 27.7331 132.656 28.0377C132.102 28.3285 131.472 28.4738 130.766 28.4738C129.894 28.4738 129.112 28.2523 128.419 27.8092C127.741 27.3523 127.208 26.7223 126.82 25.9192C126.446 25.1023 126.259 24.1677 126.259 23.1154C126.259 22.0631 126.446 21.1423 126.82 20.3531C127.208 19.55 127.741 18.9339 128.419 18.5046C129.098 18.0754 129.88 17.8608 130.766 17.8608C131.458 17.8608 132.082 18.0062 132.635 18.2969C133.203 18.5877 133.639 18.9962 133.944 19.5223V13.6654H137.08ZM131.68 26.0854C132.414 26.0854 132.975 25.8362 133.362 25.3377C133.764 24.8254 133.965 24.0985 133.965 23.1569C133.965 22.2154 133.764 21.4954 133.362 20.9969C132.975 20.4985 132.414 20.2492 131.68 20.2492C130.946 20.2492 130.378 20.4985 129.977 20.9969C129.575 21.4815 129.375 22.1877 129.375 23.1154C129.375 24.0569 129.575 24.7908 129.977 25.3169C130.378 25.8292 130.946 26.0854 131.68 26.0854Z" fill="white"/>
<path d="M149.9 18.11V27.2069C149.9 28.8546 149.43 30.1008 148.488 30.9454C147.547 31.79 146.155 32.2123 144.314 32.2123C143.4 32.2123 142.52 32.1015 141.676 31.88C140.845 31.6585 140.111 31.3469 139.474 30.9454L140.305 28.7854C141.62 29.5054 142.929 29.8654 144.23 29.8654C145.947 29.8654 146.806 29.0554 146.806 27.4354V26.3139C146.515 26.84 146.079 27.2554 145.497 27.56C144.916 27.8646 144.265 28.0169 143.545 28.0169C142.659 28.0169 141.87 27.8092 141.177 27.3938C140.499 26.9785 139.966 26.39 139.578 25.6285C139.19 24.8531 138.997 23.96 138.997 22.9492C138.997 21.9385 139.19 21.0523 139.578 20.2908C139.966 19.5154 140.499 18.92 141.177 18.5046C141.87 18.0754 142.659 17.8608 143.545 17.8608C144.251 17.8608 144.888 18.0131 145.456 18.3177C146.037 18.6085 146.48 19.0169 146.785 19.5431V18.11H149.9ZM144.459 25.6285C145.193 25.6285 145.76 25.3931 146.162 24.9223C146.577 24.4515 146.785 23.7938 146.785 22.9492C146.785 22.1046 146.577 21.4469 146.162 20.9762C145.76 20.4915 145.193 20.2492 144.459 20.2492C143.725 20.2492 143.15 20.4915 142.735 20.9762C142.32 21.4469 142.112 22.1046 142.112 22.9492C142.112 23.78 142.32 24.4377 142.735 24.9223C143.15 25.3931 143.725 25.6285 144.459 25.6285Z" fill="white"/>
<path d="M161.494 23.8008H154.847C154.944 24.6177 155.207 25.2131 155.637 25.5869C156.08 25.9469 156.703 26.1269 157.506 26.1269C158.032 26.1269 158.551 26.0438 159.064 25.8777C159.59 25.6977 160.067 25.4485 160.497 25.13L161.327 27.2277C160.829 27.6154 160.22 27.92 159.5 28.1415C158.794 28.3631 158.08 28.4738 157.36 28.4738C155.644 28.4738 154.287 28.0031 153.29 27.0615C152.307 26.1062 151.815 24.8115 151.815 23.1777C151.815 22.1392 152.03 21.2185 152.459 20.4154C152.888 19.6123 153.484 18.9892 154.245 18.5462C155.007 18.0892 155.872 17.8608 156.841 17.8608C158.267 17.8608 159.396 18.3246 160.227 19.2523C161.071 20.18 161.494 21.44 161.494 23.0323V23.8008ZM156.924 20.0208C156.329 20.0208 155.851 20.2146 155.491 20.6023C155.145 20.9762 154.93 21.5231 154.847 22.2431H158.856C158.814 21.5092 158.627 20.9554 158.295 20.5815C157.977 20.2077 157.52 20.0208 156.924 20.0208Z" fill="white"/>
</svg>
