<svg version="1.1" id="Laag_1" xmlns="http://www.w3.org/2000/svg" xmlns:xlink="http://www.w3.org/1999/xlink" x="0px" y="0px"
	 viewBox="0 0 163 40" style="enable-background:new 0 0 163 40;" xml:space="preserve">
<style type="text/css">
	.st0{fill:#CA4280;}
	.st1{clip-path:url(#SVGID_1_);fill:#CA4280;}
	.st2{fill:#FFFFFF;}
	.st3{font-family:'Audiowide-Regular';}
	.st4{font-size:14.1773px;}
	.st5{font-size:12.2376px;}
	.st6{fill:#1D1D1B;}
</style>
<g>
	<g>
		<path id="SVGID_3_" class="st0" d="M15.4,17.7l2.5,1.4l2.5-1.4l-2.5-1.4L15.4,17.7z M17.3,23.2v-2.9l-2.5-1.4v2.9L17.3,23.2z
			 M20.4,3.7l-2.5-1.4l-2.5,1.4l2.5,1.4L20.4,3.7z M18.7,9.3l2.5-1.4V5.1l-2.5,1.3V9.3z M14.8,7.8l2.5,1.4V6.4l-2.5-1.3V7.8z
			 M18.7,37.3l2.5-1.4v-2.9l-2.5,1.4V37.3z M14.8,32.9v2.9l2.5,1.4v-2.9L14.8,32.9z M17.9,30.2l-2.5,1.4l2.5,1.4l2.5-1.4L17.9,30.2z
			 M30.8,30.3l2.5-1.4V26l-2.5,1.4V30.3z M26.9,26v2.9l2.5,1.4v-2.9L26.9,26z M30,23.2l-2.5,1.4l2.5,1.4l2.5-1.4L30,23.2z M6.6,30.3
			l2.5-1.4V26l-2.5,1.4V30.3z M2.7,26v2.9l2.5,1.4v-2.9L2.7,26z M5.8,23.2l-2.5,1.4l2.5,1.4l2.5-1.4L5.8,23.2z M9.9,16.1l-3.3,1.8
			v3.9l3.6,2.1c0.3,0.1,0.4,0.4,0.4,0.7v4.2l3.4,2l3.3-1.8V25l-3.6-2.1c-0.3-0.1-0.4-0.4-0.4-0.7v-4.2L9.9,16.1z M6.6,16.2l2.5-1.4
			v-2.9l-2.5,1.4V16.2z M2.7,12v2.9l2.5,1.4v-2.9L2.7,12z M5.8,9.3l-2.5,1.4l2.5,1.4l2.5-1.4L5.8,9.3z M25.3,14.8v-3.7l-3.4-2
			l-3.6,2.1c-0.1,0.1-0.3,0.1-0.4,0.1c-0.1,0-0.3,0-0.4-0.1L14,9.1l-3.4,2v3.7l3.4,2l3.6-2.1c0.3-0.1,0.5-0.1,0.8,0l3.6,2.1
			L25.3,14.8z M29.2,17.9L26,16.1l-3.4,2v4.2l0,0c0,0.3-0.1,0.5-0.4,0.7L18.6,25V29l3.3,1.8l3.4-2v-4.2l0,0c0-0.1,0-0.3,0.1-0.4
			c0.1-0.1,0.1-0.3,0.3-0.3l3.6-2.1C29.2,21.9,29.2,17.9,29.2,17.9z M26.1,9.8l3.6-2.1c0.3-0.1,0.5-0.1,0.8,0l3.9,2.2
			c0.3,0.1,0.4,0.4,0.4,0.7v4.6l0,0c0,0.3-0.1,0.5-0.4,0.7l-3.6,2.1v3.9l3.6,2.1c0.3,0.1,0.4,0.4,0.4,0.7v4.6l0,0
			c0,0.3-0.1,0.5-0.4,0.7l-3.9,2.2c-0.1,0.1-0.3,0.1-0.4,0.1c-0.1,0-0.3,0-0.4-0.1L26.1,30l-3.4,2v4.2l0,0c0,0.3-0.1,0.5-0.4,0.7
			l-3.9,2.2c0,0.1-0.3,0.1-0.4,0.1s-0.3,0-0.4-0.1l-3.9-2.2c-0.3-0.1-0.4-0.4-0.4-0.7V32l-3.3-2l-3.6,2.1c-0.1,0.1-0.3,0.1-0.4,0.1
			c-0.1,0-0.3,0-0.4-0.1l-3.9-2.2c-0.3-0.1-0.4-0.4-0.4-0.7v-4.6l0,0c0-0.1,0-0.3,0.1-0.4C1.5,24.1,1.5,24,1.6,24l3.6-2.1v-3.9
			l-3.6-2.1c-0.3-0.1-0.4-0.4-0.4-0.7v-4.6l0,0l0,0l0,0c0-0.1,0-0.1,0-0.3l0,0l0,0l0,0l0,0l0,0l0,0l0,0l0,0l0,0
			c0-0.1,0.1-0.1,0.1-0.3l0,0l0,0l0,0l0,0l0,0l0,0l0,0l0,0l0,0l0,0l0,0l0,0l0,0l0,0l0,0l0,0l0,0l0,0l0,0l0,0l3.9-2.2
			C5.7,7.7,6,7.6,6.2,7.7l3.6,2.1l3.4-2V3.7c0-0.3,0.1-0.5,0.4-0.7l3.9-2.2c0.3-0.1,0.5-0.1,0.8,0l3.9,2.2l0.1,0.1l0,0l0,0l0,0l0,0
			l0,0l0,0l0,0l0,0l0,0l0,0l0,0l0,0l0,0c0,0,0,0,0,0.1l0,0l0,0l0,0l0,0l0,0l0,0l0,0c0,0.1,0,0.1,0,0.3l0,0l0,0l0,0l0,0l0,0v4.2
			L26.1,9.8z M30.8,16.2l2.5-1.4v-2.9l-2.5,1.6V16.2z M26.9,12v2.9l2.5,1.4v-2.9L26.9,12z M30,9.3l-2.5,1.4l2.5,1.4l2.5-1.4L30,9.3z
			 M18.7,20.4v2.9l2.5-1.4V19L18.7,20.4z"/>
	</g>
	<g>
		<defs>
			<path id="SVGID_5_" d="M15.4,17.7l2.5,1.4l2.5-1.4l-2.5-1.4L15.4,17.7z M17.3,23.2v-2.9l-2.5-1.4v2.9L17.3,23.2z M20.4,3.7
				l-2.5-1.4l-2.5,1.4l2.5,1.4L20.4,3.7z M18.7,9.3l2.5-1.4V5.1l-2.5,1.3V9.3z M14.8,7.8l2.5,1.4V6.4l-2.5-1.3V7.8z M18.7,37.3
				l2.5-1.4v-2.9l-2.5,1.4V37.3z M14.8,32.9v2.9l2.5,1.4v-2.9L14.8,32.9z M17.9,30.2l-2.5,1.4l2.5,1.4l2.5-1.4L17.9,30.2z
				 M30.8,30.3l2.5-1.4V26l-2.5,1.4V30.3z M26.9,26v2.9l2.5,1.4v-2.9L26.9,26z M30,23.2l-2.5,1.4l2.5,1.4l2.5-1.4L30,23.2z
				 M6.6,30.3l2.5-1.4V26l-2.5,1.4V30.3z M2.7,26v2.9l2.5,1.4v-2.9L2.7,26z M5.8,23.2l-2.5,1.4l2.5,1.4l2.5-1.4L5.8,23.2z M9.9,16.1
				l-3.3,1.8v3.9l3.6,2.1c0.3,0.1,0.4,0.4,0.4,0.7v4.2l3.4,2l3.3-1.8V25l-3.6-2.1c-0.3-0.1-0.4-0.4-0.4-0.7v-4.2L9.9,16.1z
				 M6.6,16.2l2.5-1.4v-2.9l-2.5,1.4V16.2z M2.7,12v2.9l2.5,1.4v-2.9L2.7,12z M5.8,9.3l-2.5,1.4l2.5,1.4l2.5-1.4L5.8,9.3z
				 M25.3,14.8v-3.7l-3.4-2l-3.6,2.1c-0.1,0.1-0.3,0.1-0.4,0.1c-0.1,0-0.3,0-0.4-0.1L14,9.1l-3.4,2v3.7l3.4,2l3.6-2.1
				c0.3-0.1,0.5-0.1,0.8,0l3.6,2.1L25.3,14.8z M29.2,17.9L26,16.1l-3.4,2v4.2l0,0c0,0.3-0.1,0.5-0.4,0.7L18.6,25V29l3.3,1.8l3.4-2
				v-4.2l0,0c0-0.1,0-0.3,0.1-0.4c0.1-0.1,0.1-0.3,0.3-0.3l3.6-2.1C29.2,21.9,29.2,17.9,29.2,17.9z M26.1,9.8l3.6-2.1
				c0.3-0.1,0.5-0.1,0.8,0l3.9,2.2c0.3,0.1,0.4,0.4,0.4,0.7v4.6l0,0c0,0.3-0.1,0.5-0.4,0.7l-3.6,2.1v3.9l3.6,2.1
				c0.3,0.1,0.4,0.4,0.4,0.7v4.6l0,0c0,0.3-0.1,0.5-0.4,0.7l-3.9,2.2c-0.1,0.1-0.3,0.1-0.4,0.1c-0.1,0-0.3,0-0.4-0.1L26.1,30l-3.4,2
				v4.2l0,0c0,0.3-0.1,0.5-0.4,0.7l-3.9,2.2c0,0.1-0.3,0.1-0.4,0.1s-0.3,0-0.4-0.1l-3.9-2.2c-0.3-0.1-0.4-0.4-0.4-0.7V32l-3.3-2
				l-3.6,2.1c-0.1,0.1-0.3,0.1-0.4,0.1c-0.1,0-0.3,0-0.4-0.1l-3.9-2.2c-0.3-0.1-0.4-0.4-0.4-0.7v-4.6l0,0c0-0.1,0-0.3,0.1-0.4
				C1.5,24.1,1.5,24,1.6,24l3.6-2.1v-3.9l-3.6-2.1c-0.3-0.1-0.4-0.4-0.4-0.7v-4.6l0,0l0,0l0,0c0-0.1,0-0.1,0-0.3l0,0l0,0l0,0l0,0
				l0,0l0,0l0,0l0,0l0,0c0-0.1,0.1-0.1,0.1-0.3l0,0l0,0l0,0l0,0l0,0l0,0l0,0l0,0l0,0l0,0l0,0l0,0l0,0l0,0l0,0l0,0l0,0l0,0l0,0l0,0
				l3.9-2.2C5.7,7.7,6,7.6,6.2,7.7l3.6,2.1l3.4-2V3.7c0-0.3,0.1-0.5,0.4-0.7l3.9-2.2c0.3-0.1,0.5-0.1,0.8,0l3.9,2.2l0.1,0.1l0,0l0,0
				l0,0l0,0l0,0l0,0l0,0l0,0l0,0l0,0l0,0l0,0l0,0c0,0,0,0,0,0.1l0,0l0,0l0,0l0,0l0,0l0,0l0,0c0,0.1,0,0.1,0,0.3l0,0l0,0l0,0l0,0l0,0
				v4.2L26.1,9.8z M30.8,16.2l2.5-1.4v-2.9l-2.5,1.6V16.2z M26.9,12v2.9l2.5,1.4v-2.9L26.9,12z M30,9.3l-2.5,1.4l2.5,1.4l2.5-1.4
				L30,9.3z M18.7,20.4v2.9l2.5-1.4V19L18.7,20.4z"/>
		</defs>
		<clipPath id="SVGID_1_">
			<use xlink:href="#SVGID_5_"  style="overflow:visible;"/>
		</clipPath>
		<rect x="1.1" y="0.6" class="st1" width="33.7" height="38.7"/>
	</g>
</g>
<text transform="matrix(1.0312 0 0 1 39.6172 32.2705)" class="st2 st3 st4">SDX - BRIDGE</text>
<text transform="matrix(0.9254 0 0 1 39.4648 16.6553)" class="st2 st3 st5">SMART</text>
<text transform="matrix(0.9254 0 0 1 83.3955 16.6553)" class="st0 st3 st5"> DEX</text>
<text transform="matrix(0.9254 0 0 1 111.6162 16.6553)" class="st6 st3 st5"> </text>
<text transform="matrix(0.9254 0 0 1 114.7148 16.6553)" class="st2 st3 st5">CHAIN</text>
</svg>
