<svg width="16" height="11" viewBox="0 0 16 11" fill="none" xmlns="http://www.w3.org/2000/svg">

<path fill-rule="evenodd" clip-rule="evenodd" d="M1.36234 4.50074C0.996261 4.5504 0.714108 4.86419 0.714108 5.24389C0.714108 5.6581 1.04989 5.99389 1.46411 5.99389L13.2658 5.99389L10.4567 8.79022L10.3839 8.87417C10.1653 9.16728 10.1886 9.584 10.4542 9.85088C10.7464 10.1445 11.2213 10.1455 11.5149 9.85333L15.6115 5.77555L15.6161 5.77036C15.6386 5.74747 15.6597 5.72313 15.6792 5.69751L15.6846 5.69132C15.9036 5.39721 15.8793 4.97896 15.6115 4.71245L11.5149 0.634666L11.4306 0.562244C11.1365 0.34507 10.7199 0.370237 10.4542 0.637119C10.162 0.930687 10.1631 1.40556 10.4567 1.69778L13.2649 4.49389L1.46411 4.49389L1.36234 4.50074Z" fill="#00E8B5"/>

</svg>